<?xml version="1.0" encoding="UTF-8"?>
<svg id="Layer_2" data-name="Layer 2" xmlns="http://www.w3.org/2000/svg" viewBox="0 0 280.72 324.08">
  <g id="Layer_1-2" data-name="Layer 1">
    <g>
      <path d="M139.7,0h1l128.79,75.01c6.61,3.85,11.11,12.39,11.12,20.12l.12,133.8c-1.08,8.24-3.94,16.44-11.55,20.83l-128.7,74.33L13.87,251.14c-8.65-4.98-13.51-12.55-13.87-22.66L.05,95.51c0-9.52,5.33-17.49,13.33-22.14L139.7,0ZM140.19,318.6l124.63-74.41c5.91-3.53,8.35-9.5,8.93-16.2V96.1c-.36-8.65-5.12-13.91-12.14-18.1L140.13,5.54,16.94,79.06c-6.36,3.79-9.76,9.78-10.28,17v131.8c.24,8.46,4.56,13.8,11.42,17.89l122.13,72.85Z"/>
      <g>
        <path d="M207.94,105.14l7.42-9.45c2.8-3.57.99-6.96-1.69-9.59l-7.18-7.05c-.46,7.89,11.73,8.62,5.64,16.57-13.47,17.57-32.44,23.02-53.18,31.7,9.23,3.7,45.06-2.63,49.43,12.64.81,2.82.15,7.88-1.93,9.32-3.47,2.4-7.62,1.38-10.34-1.13-2.21-2.04-2.8-5.33-2.87-9.39l-5.38,4.92c-.42-2.88-.65-5.5-1.23-6.84-2.78-6.38-40.88-6.34-49.58-6.59,8.89-7.03,17.35-11.26,30.98-9.4-18.65-16.19-38.79,18.56-56.8,8.5,2.56,9.65,10.23,6.41,16.91,5.52,11.68-1.56,43.86-1.62,55.58,3.3-.2,17.82.68,34.96-.6,52.49-.48,6.56-4.48,13.18,1.83,18.45-8.13-19.76,25.78-48.66,31.05-66.97,11.84,3.43-15.42,35.24-16.3,43.63l17.83-24.09c2.42-3.26,4.15-7.26,5.69-10.65,4.31,8.05,3.01,16.53-2.11,23.64l-14.62,20.29c-3.37,4.67-5.8,10.29-7.28,15.75-1.78,6.55,1.71,13.55,8.7,14.15-4.61-3.34-7.67-7.68-5.35-13.42,2.09-5.18,5.49-10.1,9.02-14.65l17.01-21.96c4.38-5.66,4.84-11.94,5.26-18.88,1.23-20.67-8.62-39.4-25.91-50.79ZM187.59,180.32l-.13-25.52c4.51,4.12,8.28,5.18,13.68,3.97l-13.55,21.55ZM194.93,116.37l7.27-5.73c8.98,5.1,18.69,11.89,20.78,22.63-6.34-10.36-15.95-16.29-28.05-16.9Z"/>
        <path d="M97.47,185.97c-2.13-15.95-.04-31.56-.92-47.91l14.12-3.65c-1.71-5.45-14.67-.06-17.76,2.44l-.59,6.85-5.38-5.12c0,5.15-1.22,8.56-5.22,10.7-2.34,1.25-7.74,1.81-9.38-1.69-3.01-6.41,1.8-13.29,8.1-15.82,7.44-2.98,15.26-2.63,23.9-3.57-4.5-5.15-10.63-3.83-16.27-2.82-17.12,3.08-30.19,13.69-37.56,30.53-2.74-17.74,4.76-34.26,18.38-46.96-5.7,2.64-9.63,8-13.28,12.87-7.59,10.11-9.6,21.73-9.22,34.19.18,5.78.76,11.09,4.23,15.96,4.74,6.64,9.64,12.86,14.82,19.25,5.44,6.72,17.39,21.6,11.56,29.25-1.46,1.91-4.68,3.71-7.4,5.55,10.55-1.08,19.37-7.97,25.49-15.44,6.77-8.26,3.57-15.83,2.4-24.6ZM74.86,178.98c-4.66-6.78-22.44-25.35-12.74-29.9,1.52,6.11,3.93,11.65,7.25,17.15,4.99,8.28,11.06,15.54,14.27,25.54l-8.79-12.79ZM92.09,179.37l-13.25-20.64c5.76,1.24,9.68.42,13.7-3.7.23,8.25.39,14.8-.45,24.34Z"/>
        <path d="M140.23,186.09l-47.16,32.44-.47,23.53c.3,4.79,2.55,9.09,6.72,11.48l34.24,19.64c2.17,1.24,4.59,3.72,6.59,5.65,2.07-1.98,4.41-4.34,6.61-5.62l33.57-19.45c4.66-2.7,7.16-7.56,7.14-12.79l-.15-22.42-47.1-32.47ZM179.84,250.06l-39.73,23.06-40.14-23.44c-3.51-3.36-4.39-8.2-3.35-12.84l43.55-28.66,43.32,29.21c1.68,4.44.32,9.62-3.65,12.68Z"/>
      </g>
    </g>
  </g>
</svg>